# xmcd
# 
# Track frame offsets:
#     150
#     21342
#     38997
#     63295
#     83780
#     104584
#     125781
#     149380
#     167168
#     186062
#     200456
#     229434
#     251798
#     284922
#     304503
# 
# Disc length: 4384
# 
# Revision: 7
# Processed by: cddbd v1.5.2PL0 Copyright (c) Steve Scherf et al.
# Submitted via: fre:ac v1.0.31
# 
DISCID=e7111e0f
DTITLE=Eric Clapton - Clapton Chronicles The Best Of
DYEAR=1999
DGENRE=Blues
TTITLE0=Blue Eyes Blue
TTITLE1=Change the World
TTITLE2=My Father's Eyes
TTITLE3=Tears in Heaven
TTITLE4=Layla
TTITLE5=Pretending
TTITLE6=Bad Love
TTITLE7=Before You Accuse Me
TTITLE8=It's in the Way That You Use it
TTITLE9=Forever Man
TTITLE10=Running on Faith
TTITLE11=She's Waiting
TTITLE12=River of Tears
TTITLE13=(I) Get Lost
TTITLE14=Wonderful Tonight
EXTD=
EXTT0=
EXTT1=
EXTT2=
EXTT3=
EXTT4=
EXTT5=
EXTT6=
EXTT7=
EXTT8=
EXTT9=
EXTT10=
EXTT11=
EXTT12=
EXTT13=
EXTT14=
PLAYORDER=
